<svg data-name="Layer 1" xmlns="http://www.w3.org/2000/svg" width="850" height="520.84494" viewBox="0 0 850 520.84494" xmlns:xlink="http://www.w3.org/1999/xlink"><path d="M717.33682,462.93546a14.65213,14.65213,0,0,0,11.0391-26.92491L697.2754,400.727,670.97048,406.41l36.99734,36.23808a14.573,14.573,0,0,0,9.36894,20.28732Z" transform="translate(-175 -189.57753)" fill="#a0616a"/><polygon points="440.016 147.04 517.531 244.34 541.159 233.492 450.049 91.647 440.016 147.04" fill="#3f3d56"/><path id="bbb65a06-4388-4569-87f8-fdcf21a5aae9-78" data-name="a9adb9ea-63bd-4fab-ab8c-5a8362c24c0e" d="M967.41261,672.89861c4.858-9.424,2.219-21.314-3.828-30.024s-14.976-14.916-23.709-20.929l-12.143-8.362,5.8,29.112c1.958,9.843,4.371,20.472,12.058,26.924a22.72784,22.72784,0,0,0,21.947,3.866" transform="translate(-175 -189.57753)" fill="#e6e6e6"/><path id="b60b4bdd-1468-4587-b387-9dd74123fc14-79" data-name="ed5b34f6-0534-4519-a094-dcdf83ab50dc" d="M966.49561,708.73064a.878.878,0,0,1-1.074.61.9.9,0,0,1-.61-1.074c.677-4.93,1.348-9.863,1.665-14.83.528-8.213.04-16.642-3-24.374a35.30026,35.30026,0,0,0-13.963-16.847c-.948-.598-.072-2.107.881-1.507a37.132,37.132,0,0,1,9.527,8.633c4.992,6.436,7.443,14.285,8.209,22.321.862,9.049-.402,18.116-1.631,27.069Z" transform="translate(-175 -189.57753)" fill="#f2f2f2"/><path id="bb361191-ab63-4eee-8f74-e0c90ef218a4-80" data-name="e0867f2b-861c-49f4-a2d1-8ca31a29fe8f" d="M842.90262,653.43962c38.258,23.543,25.505,54.934,25.505,54.934Z" transform="translate(-175 -189.57753)" fill="#e6e6e6"/><path id="a8c2400c-de96-4d85-b082-a15f0836198d-81" data-name="b461d634-05fb-4647-ba4f-16823402cab1" d="M918.09158,685.62059c-30.11-.192-34,22.182-34,22.182Z" transform="translate(-175 -189.57753)" fill="#e6e6e6"/><circle cx="257.33293" cy="512.14977" r="8.50192" fill="#3f3d56"/><path d="M438.51615,530.53009S458.61162,469.471,460.15738,465.22s17.77664,2.70511,22.0276,3.86446,3.09164,5.41031,3.09164,5.41031l-21.64116,62.60485,6.56959,3.09164,20.09541-62.99136c11.59355-11.97993,3.09164-12.75284,3.09164-12.75284s-24.73274-8.50191-34.0076-9.27482-5.79678,10.43414-5.79678,10.43414l-22.4141,59.51331Z" transform="translate(-175 -189.57753)" fill="#3f3d56"/><path d="M486.82225,545.215l-.00386-.00387a24.09955,24.09955,0,0,0-11.58963-8.88449q-.24933-.09278-.57966-.20868c-10.64666-3.72155-84.82574-23.75118-84.82574-23.75118s-14.685-5.41021-21.25466,9.27486-45.60109,136.41683-45.60109,136.41683,76.33922,40.82459,98.5949,45.26877a13.44168,13.44168,0,0,0,4.2007.33232,59.23347,59.23347,0,0,0,11.11821-2.65489,46.53237,46.53237,0,0,0,11.296-5.46059l43.28239-129.46074S497.643,551.78476,486.82225,545.215Z" transform="translate(-175 -189.57753)" fill="#f55ea9"/><path d="M486.82231,545.21516l-.00386-.00386a24.09958,24.09958,0,0,0-11.58969-8.88449q-.24933-.09288-.57966-.20868c3.50134,6.13676,4.83068,15.66669,4.83068,15.66669s-42.50951,126.36916-46.374,138.34909c-2.94474,9.13176-8.88442,12.23494-11.54324,13.19337a13.44176,13.44176,0,0,0,4.20071.33232,59.23355,59.23355,0,0,0,11.1182-2.65489,24.73761,24.73761,0,0,0,2.794-3.91477S482.95792,567.6292,486.82238,561.446C490.6869,555.26271,486.82231,545.21516,486.82231,545.21516Z" transform="translate(-175 -189.57753)" fill="#3f3d56"/><circle cx="231.24753" cy="512.34299" r="8.50192" fill="#3f3d56"/><circle cx="148.74048" cy="476.59639" r="8.50192" fill="#3f3d56"/><path d="M473.59937,470.39528a14.65214,14.65214,0,0,1-11.99122-26.51459l29.82392-36.36905,26.49066,4.74243-35.683,37.533a14.57308,14.57308,0,0,1-8.64032,20.60819Z" transform="translate(-175 -189.57753)" fill="#a0616a"/><polygon points="501.866 440.846 520.34 440.556 518.118 503.522 501.869 503.522 501.866 440.846" fill="#a0616a"/><path d="M672.724,687.79454l32.00113-.00128h.00131a20.39475,20.39475,0,0,1,20.39362,20.39331v.66272l-52.39508.00195Z" transform="translate(-175 -189.57753)" fill="#2f2e41"/><polygon points="379.549 424.146 399.73 437.102 359.362 485.667 345.688 476.888 379.549 424.146" fill="#a0616a"/><path d="M520.06647,659.7617l26.92907,17.2887.0011.00067a20.39472,20.39472,0,0,1,6.14264,28.179l-.358.55768-44.09052-28.30671Z" transform="translate(-175 -189.57753)" fill="#2f2e41"/><path d="M547.35937,421.45269s44.83957-148.9274,59.24978-150.93993,37.62808,38.21305,37.62808,38.21305c30.103,38.40821,61.144,162.82087,61.144,162.82087s-51.74659,3.23809-89.57339,23.36344-82.46764-1.0188-82.46764-1.0188Z" transform="translate(-175 -189.57753)" fill="#3f3d56"/><path d="M547.35937,421.45269s44.83957-148.9274,59.24978-150.93993S638.34021,309.134,638.34021,309.134c15,62,67.04105,162.41266,67.04105,162.41266s-51.74659,3.23809-89.57339,23.36344-82.46764-1.0188-82.46764-1.0188Z" transform="translate(-175 -189.57753)" opacity="0.1" style="isolation:isolate"/><polygon points="409.147 187.317 409.147 262.152 400.34 370.556 356.34 452.556 377.34 467.556 437.34 389.556 461.071 312.107 498.34 483.556 526.34 481.556 506.894 243.845 469.993 176.935 409.147 187.317" fill="#2f2e41"/><path d="M629.35645,304.51228c14,14,1,29,1,29l16,36-63,17L561.34021,288.134l15-16c30-1,30.01624-1.62174,30.01624-1.62174C611.61267,275.65611,629.35645,304.51228,629.35645,304.51228Z" transform="translate(-175 -189.57753)" fill="#ccc"/><path d="M558.455,278.19847h0a26.87924,26.87924,0,0,0-7.77734,34.32911c7.21777,13.77783,14.98144,35.12011,10.978,58.5498-7.24414,42.40234-30.46631,74.61768-43.40186,84.96387-4.50342,3.60156-4.66064,8.84668-3.99951,12.6123,1.84668,10.52051,12.04736,22.459,19.10254,24.85254a4.55981,4.55981,0,0,0,1.47314.23145c11.46192.0039,39.65625-36.501,72.05518-107.81055,20.17773-44.41065,5.5332-80.01953-10.30469-102.07178a26.8839,26.8839,0,0,0-37.77734-5.91308Z" transform="translate(-175 -189.57753)" fill="#3f3d56"/><polygon points="413.34 131.556 322.356 250.935 298.356 240.935 384.356 95.935 413.34 131.556" fill="#3f3d56"/><path d="M615.328,257.55132H552.749a4.86078,4.86078,0,0,1-4.85528-4.85526V225.72234h0a36.14481,36.14481,0,1,1,72.28961,0v26.97372A4.86078,4.86078,0,0,1,615.328,257.55132Z" transform="translate(-175 -189.57753)" fill="#2f2e41"/><circle cx="591.46588" cy="230.42328" r="26.50011" transform="translate(-69.42256 449.3053) rotate(-61.3368)" fill="#a0616a"/><path d="M628.73431,228.41969H590.46875l-.39252-5.49379-1.96191,5.49379h-5.89209l-.77759-10.88853-3.88855,10.88853H566.15521v-.53947a28.62427,28.62427,0,0,1,28.59192-28.59215h5.395a28.62448,28.62448,0,0,1,28.59216,28.59215Z" transform="translate(-175 -189.57753)" fill="#2f2e41"/><path d="M590.15558,262.58653a4.95761,4.95761,0,0,1-.85925-.07586l-28.01978-4.94379v-46.3084h30.84436l-.76361.89034c-10.62463,12.39105-2.62024,32.48332,3.09668,43.35712a4.78338,4.78338,0,0,1-.38013,5.07864A4.83582,4.83582,0,0,1,590.15558,262.58653Z" transform="translate(-175 -189.57753)" fill="#2f2e41"/><path d="M175,709.42247a1,1,0,0,1,1-1h848a1,1,0,0,1,0,2H176A1,1,0,0,1,175,709.42247Z" transform="translate(-175 -189.57753)" fill="#cbcbcb"/></svg>

laptop
<svg fill="#F55EA9" viewBox="0 0 256 256" id="Flat" xmlns="http://www.w3.org/2000/svg" stroke="#F55EA9"><g id="SVGRepo_bgCarrier" stroke-width="0"></g><g id="SVGRepo_iconCarrier"> <path d="M28,96v68a4.00427,4.00427,0,0,0,4,4h76a12,12,0,0,1,0,24h-8v12h8a12,12,0,0,1,0,24H68a12,12,0,0,1,0-24h8V192H32A28.03146,28.03146,0,0,1,4,164V96A28.03146,28.03146,0,0,1,32,68h76a12,12,0,0,1,0,24H32A4.00427,4.00427,0,0,0,28,96Zm152-8h24a12,12,0,0,0,0-24H180a12,12,0,0,0,0,24Zm0,36h24a12,12,0,0,0,0-24H180a12,12,0,0,0,0,24Zm72-76V208a20.0226,20.0226,0,0,1-20,20H152a20.0226,20.0226,0,0,1-20-20V48a20.0226,20.0226,0,0,1,20-20h80A20.0226,20.0226,0,0,1,252,48Zm-24,4H156V204h72ZM192,160a16,16,0,1,0,16,16A16.01833,16.01833,0,0,0,192,160Z"></path> </g></svg>

tourism
<svg viewBox="0 0 512 512" id="Layer_1" version="1.1" xml:space="preserve" xmlns="http://www.w3.org/2000/svg" xmlns:xlink="http://www.w3.org/1999/xlink" fill="purple" stroke="purple"><g id="SVGRepo_bgCarrier" stroke-width="0"></g><g id="SVGRepo_iconCarrier"> <style type="text/css"> .st0{fill:#33333;} </style> <g> <path class="st0" d="M350.9,364.4c-3.2-0.3-6.4-0.5-9.7-0.5c-15.1,0-29.5,3.4-42.3,9.4c-16.1-19-36.9-33.9-60.8-42.7 c-4-1.5-8.2-2.8-12.4-3.9c-12.1-3.3-24.7-5-37.8-5c-17,0-33.2,2.9-48.3,8.3c-55.4,19.6-95.4,71.9-96.7,133.8H441 C441,411.9,401.5,369.3,350.9,364.4z M153.8,370.3c-28.2,10-50.6,31.9-61.5,60.1c-1.1,2.8-3.7,4.5-6.5,4.5c-0.8,0-1.7-0.1-2.5-0.5 c-3.6-1.4-5.4-5.4-4-9c12.3-32.1,37.8-56.9,69.9-68.3c3.7-1.3,7.6,0.6,8.9,4.3C159.4,365.1,157.5,369,153.8,370.3z"></path> <path class="st0" d="M322.9,235.9c15.3,0,27.2,5.8,32.4,8.8c3.9-20.7,8.8-39.8,13.3-55.6l-30.4-12.3l-0.2-0.8 c-50.5,41.2-79.2,95.5-95.5,141.3c0.1,0,0.3,0.1,0.4,0.2c22.5,8.3,43,21.7,59.7,39.1c12.3-4.5,25.2-6.7,38.5-6.7 c2.5,0,5.1,0.1,7.6,0.3c-1.1-10.3-1.6-20.9-1.5-31.6c-0.7,0.2-1.4,0.3-2,0.3c-1.1,0-2.2-0.3-3.3-0.8c-0.3-0.2-21.5-11.3-41.5-11.3 c-3.9,0-7-3.1-7-7c0-3.9,3.1-7,7-7c21.4,0,42.6,10.2,47.2,12.5c0.8-15.7,2.6-31.3,5-46.3c-1-0.2-2-0.6-2.9-1.2 c-0.2-0.2-11.5-7.9-27-7.9c-3.9,0-7-3.1-7-7C315.9,239,319.1,235.9,322.9,235.9z"></path> <path class="st0" d="M413.4,95.4c0,0-22.8-57.2-94.8-45.6c0,0,30.5,17.5,27.4,42.5c0,0-48.5-26.7-98.7,30.2c0,0,92.3-4.9,103,44.1 l22.3,9c0,0,61.7,7.8,63.8,58.8c0,0,27.9-31.1,15.8-69.5c0,0,24.8-1.6,32.1,20C484.4,185,505.8,92.3,413.4,95.4z"></path> <path class="st0" d="M171.9,233.6c-6.8-7.6-14.3-14.9-22.6-21.8l-0.2,0.7l-26.4,10.7c6.9,24.5,14.6,58.3,16.4,92.1 c15.7-5,32.1-7.6,48.7-7.6c10.7,0,21.4,1.1,31.8,3.2c-2-5-4.3-10-6.7-15.1c-1.1,0.5-2.3,0.8-3.6,0.7c-0.3,0-26.8-1.8-39.1-0.1 c-0.3,0-0.6,0.1-1,0.1c-3.4,0-6.4-2.5-6.9-6c-0.5-3.8,2.1-7.4,6-7.9c10.6-1.5,29.3-0.7,37.6-0.3c-6.8-12.6-15-25.2-24.6-37.3 c-0.8,0.7-1.8,1.2-2.8,1.4c-7.9,1.9-16.3,4.7-18.1,6.1c-1.4,1.3-3.1,2-4.9,2c-1.8,0-3.6-0.7-4.9-2.1c-2.7-2.7-2.7-7.2,0-9.9 C154.6,238.7,164.6,235.5,171.9,233.6z"></path> <path class="st0" d="M53.6,201c-9.9,31.5,13,57,13,57c1.7-41.9,52.3-48.2,52.3-48.2l18.3-7.4c8.7-40.2,84.4-36.2,84.4-36.2 c-41.2-46.6-80.9-24.8-80.9-24.8c-2.6-20.4,22.5-34.8,22.5-34.8c-59-9.5-77.7,37.4-77.7,37.4c-75.7-2.6-58.1,73.4-58.1,73.4 C33.3,199.7,53.6,201,53.6,201z"></path> </g> </g></svg>

consultation
<svg viewBox="-76.8 -76.8 665.60 665.60" id="Layer_1" version="1.1" xml:space="preserve" xmlns="http://www.w3.org/2000/svg" xmlns:xlink="http://www.w3.org/1999/xlink" fill="#000000"><g id="SVGRepo_bgCarrier" stroke-width="0"></g><g id="SVGRepo_iconCarrier"> <style type="text/css"> .st0{fill:#EEEDF2;} .st1{fill:none;stroke:#1E247E;stroke-width:6;stroke-linecap:round;stroke-miterlimit:10;} .st2{fill:#EFC12F;stroke:#1E247E;stroke-width:6;stroke-linecap:round;stroke-miterlimit:10;} .st3{fill:none;stroke:#1E247E;stroke-width:3;stroke-linecap:round;stroke-miterlimit:10;} .st4{fill:#FFFFFF;stroke:#1E247E;stroke-width:3;stroke-linecap:round;stroke-miterlimit:10;} .st5{fill:#FCF5F2;stroke:#1E247E;stroke-width:5;stroke-linecap:round;stroke-miterlimit:10;} .st6{fill:#FCF5F2;stroke:#1E247E;stroke-width:6;stroke-linecap:round;stroke-miterlimit:10;} .st7{fill:#1E247E;} .st8{fill:none;stroke:#1E247E;stroke-width:4;stroke-linecap:round;stroke-miterlimit:10;} .st9{fill:#EAB8B1;} .st10{fill:#DC9695;stroke:#1E247E;stroke-width:4;stroke-linecap:round;stroke-miterlimit:10;} .st11{fill:#EECED1;stroke:#1E247E;stroke-width:3;stroke-linecap:round;stroke-miterlimit:10;} .st12{fill:#CB7272;stroke:#1E247E;stroke-width:3;stroke-linecap:round;stroke-miterlimit:10;} .st13{fill:#D3D5E7;stroke:#1E247E;stroke-width:6;stroke-linecap:round;stroke-miterlimit:10;} .st14{fill:#D3D5E7;} .st15{fill:#FFFFFF;stroke:#1E247E;stroke-width:5;stroke-linecap:round;stroke-miterlimit:10;} .st16{fill:#FFFFFF;stroke:#1E247E;stroke-width:4;stroke-linecap:round;stroke-miterlimit:10;} .st17{fill:#ECECEE;} .st18{fill:#DA867D;stroke:#1E247E;stroke-width:4;stroke-linecap:round;stroke-miterlimit:10;} .st19{fill:#FCF5F2;stroke:#1E247E;stroke-width:4;stroke-linecap:round;stroke-miterlimit:10;} .st20{fill:#69AEF8;stroke:#1E247E;stroke-width:6;stroke-linecap:round;stroke-miterlimit:10;} .st21{opacity:0.4;fill:#FFFFFF;} .st22{opacity:0.7;fill:#FFFFFF;} .st23{fill:#69ADF7;stroke:#1E247E;stroke-width:2.5;stroke-linecap:round;stroke-miterlimit:10;} .st24{fill:none;stroke:#FFFFFF;stroke-width:7;stroke-linecap:round;stroke-miterlimit:10;} .st25{fill:none;stroke:#1E247E;stroke-width:2.5;stroke-linecap:round;stroke-miterlimit:10;} .st26{fill:#F0C330;stroke:#1E247E;stroke-width:6;stroke-linecap:round;stroke-miterlimit:10;} .st27{opacity:0.3;} .st28{fill:#FFFFFF;} .st29{fill:#79CAA1;stroke:#1E247E;stroke-width:6;stroke-linecap:round;stroke-miterlimit:10;} .st30{fill:#DA867D;stroke:#1E247E;stroke-width:6;stroke-linecap:round;stroke-miterlimit:10;} .st31{fill:#FFFFFF;stroke:#1E247E;stroke-width:6;stroke-linecap:round;stroke-miterlimit:10;} .st32{fill:#DBE7FE;stroke:#1E247E;stroke-width:5;stroke-linecap:round;stroke-miterlimit:10;} .st33{fill:#F2F3F3;} .st34{fill:none;stroke:#1E247E;stroke-width:6;stroke-linecap:round;stroke-linejoin:round;stroke-miterlimit:10;} .st35{fill:#DBE7FE;stroke:#1E247E;stroke-width:6;stroke-linecap:round;stroke-linejoin:round;stroke-miterlimit:10;} .st36{fill:#EFC230;stroke:#1E247E;stroke-width:6;stroke-linecap:round;stroke-linejoin:round;stroke-miterlimit:10;} .st37{fill:none;stroke:#1E247E;stroke-width:3;stroke-linecap:round;stroke-linejoin:round;stroke-miterlimit:10;} .st38{fill:#F0C330;stroke:#1E247E;stroke-width:6;stroke-linecap:round;stroke-linejoin:round;stroke-miterlimit:10;} .st39{fill:#79CAA1;stroke:#1E247E;stroke-width:6;stroke-linecap:round;stroke-linejoin:round;stroke-miterlimit:10;} .st40{fill:#FFFFFF;stroke:#1E247E;stroke-width:6;stroke-linecap:round;stroke-linejoin:round;stroke-miterlimit:10;} .st41{fill:#DA867D;stroke:#1E247E;stroke-width:6;stroke-linecap:round;stroke-linejoin:round;stroke-miterlimit:10;} .st42{fill:#DBE7FE;stroke:#1E247E;stroke-width:6;stroke-linejoin:round;stroke-miterlimit:10;} .st43{fill:none;stroke:#1E247E;stroke-width:6;stroke-linejoin:round;stroke-miterlimit:10;} .st44{opacity:0.7;} .st45{fill:#FFFFFF;stroke:#1E247E;stroke-width:6;stroke-linejoin:round;stroke-miterlimit:10;} .st46{fill:none;stroke:#FFFFFF;stroke-width:3;stroke-linecap:round;stroke-linejoin:round;stroke-miterlimit:10;} .st47{fill:none;stroke:#1E247E;stroke-width:5;stroke-linecap:round;stroke-miterlimit:10;} .st48{fill:#DBE7FE;stroke:#1E247E;stroke-width:6;stroke-linecap:round;stroke-miterlimit:10;} .st49{opacity:0.1;fill:#BDBDBD;} .st50{fill:#69AEF8;stroke:#1E247E;stroke-width:6;stroke-linecap:round;stroke-linejoin:round;stroke-miterlimit:10;} .st51{fill:#79CAA1;stroke:#1E247E;stroke-width:5;stroke-miterlimit:10;} .st52{fill:#D2D4E6;stroke:#1E247E;stroke-width:5;stroke-linecap:round;stroke-miterlimit:10;} .st53{fill:#69AEF8;stroke:#1E247E;stroke-width:5;stroke-miterlimit:10;} .st54{opacity:0.2;fill:none;stroke:#1E247E;stroke-width:5;stroke-linecap:round;stroke-miterlimit:10;} .st55{fill:none;stroke:#1E247E;stroke-width:2.5;stroke-linecap:round;stroke-linejoin:round;stroke-miterlimit:10;} .st56{fill:#69AEF8;stroke:#1E247E;stroke-width:6;stroke-miterlimit:10;} .st57{fill:#DBE7FE;} .st58{fill:#FFFFFF;stroke:#1E247E;stroke-width:6;stroke-miterlimit:10;} .st59{fill:#D9857D;stroke:#1E247E;stroke-width:5;stroke-miterlimit:10;} .st60{fill:none;stroke:#D3D5E7;stroke-width:4.7904;stroke-linecap:round;stroke-miterlimit:10;} .st61{fill:#D2D4E6;stroke:#D3D5E7;stroke-width:4.7904;stroke-linecap:round;stroke-miterlimit:10;} .st62{fill:#D2D4E6;stroke:#D3D5E7;stroke-width:5.5;stroke-linecap:round;stroke-miterlimit:10;} .st63{fill:none;stroke:#D3D5E7;stroke-width:5.5;stroke-linecap:round;stroke-miterlimit:10;} .st64{fill:#79CAA1;} .st65{fill:#F0C330;} .st66{fill:#79CAA1;stroke:#1E247E;stroke-width:6;stroke-miterlimit:10;} .st67{opacity:0.8;fill:#FFFFFF;} .st68{fill:#DA867D;stroke:#1E247E;stroke-width:6;stroke-miterlimit:10;} .st69{fill:#F0C330;stroke:#1E247E;stroke-width:5;stroke-miterlimit:10;} .st70{fill:#D2D4E6;} .st71{fill:#EEBDBC;stroke:#D3D5E7;stroke-width:5.5;stroke-linecap:round;stroke-miterlimit:10;} .st72{fill:#D3D5E7;stroke:#D3D5E7;stroke-width:5.5;stroke-linecap:round;stroke-miterlimit:10;} </style> <g> <g id="Support"> <circle class="st0" cx="256" cy="256" id="Background" r="215.9"></circle> <g id="Table_line"> <line class="st1" id="Right" x1="443.5" x2="471.1" y1="471.2" y2="471.2"></line> <line class="st1" id="Middle_1_" x1="72.2" x2="431.5" y1="471.2" y2="471.2"></line> <line class="st1" id="Left" x1="40.4" x2="58.4" y1="471.2" y2="471.2"></line> </g> <g id="Person_with_headphones"> <g id="Woman"> <g id="Head_1_"> <g id="Hair"> <g id="Main_area"> <path class="st2" d="M289.5,316.3l-56.1,0c-42.6,0-76.3-36-73.8-78.5c1.8-30.6,6.5-58.5,10.2-68.4 c8.7-23.1,43.2-78.2,119.9-51.4c0,0,50.5-11.1,64.9,53.5c4.4,19.7,7.5,43.2,8.9,66.6C366.1,280.6,332,316.3,289.5,316.3z" id="Hair_1_"></path> </g> <path class="st3" d="M240.3,177.1c8.1-1.5,17.2-4.2,27-8.9" id="Line:_middle_top"></path> <path class="st3" d="M226.9,178.7c2.2-0.1,4.6-0.3,7-0.6" id="Line:_left_top"></path> <path class="st4" d="M312.2,174.6c2.1,4.3,5.9,8.7,10.2,12c2.3,1.8,4.1,4,5.4,6.6" id="Line:_right_top"></path> <path class="st3" d="M180,274.6c-4.7-6.4-7.9-14-9-22.2" id="Line:_left_bottom"></path> </g> <g id="Face"> <path class="st5" d="M209.1,241.9L209.1,241.9c-2.9,2.7-7.5,2.4-10.2-0.5l-6.8-7.5c-2.7-2.9-2.4-7.5,0.5-10.2 l0,0c2.9-2.7,7.5-2.4,10.2,0.5l6.8,7.5C212.3,234.7,212.1,239.3,209.1,241.9z" id="Left_ear"></path> <path class="st6" d="M311.3,186c6.6,5.1,10.6,13,10.6,21.3v6.5c0,17.4-4.9,34.5-14.6,48.9 c-5.9,8.7-13.7,17.2-23.9,22.6c-6.4,3.4-13.8,5.5-22.2,5.7l-0.7,0c-8.8-0.1-16.5-2.3-23.3-5.9c-8.3-4.4-15-10.8-20.4-17.6 c-12-15.3-18.1-34.5-18.1-53.9v-3.9c0-10.7,8.7-20.5,19.3-22c14.6-2,45.8,1.2,71.4-20.6c2.3-2,5.8-1.2,7.1,1.5 C299.6,174.8,305,181.2,311.3,186z" id="Face_shape"></path> <g id="Eyes"> <g id="Left_1_"> <g> <path class="st7" d="M235.1,226.8c5.8,0,5.8-9,0-9C229.3,217.8,229.3,226.8,235.1,226.8L235.1,226.8z"></path> </g> </g> <g id="Right_1_"> <g> <path class="st7" d="M285.4,226.8c5.8,0,5.8-9,0-9C279.6,217.8,279.6,226.8,285.4,226.8L285.4,226.8z"></path> </g> </g> </g> <path class="st3" d="M267.2,234.1c-1.1,2-3.8,3.5-7,3.5c-3.1,0-5.7-1.4-6.9-3.3" id="Nose"></path> <g id="Eyebrow"> <path class="st8" d="M225,208.9c0,0,9.2-4.3,17.8,0" id="Left_2_"></path> <path class="st8" d="M295.4,208.9c0,0-9.2-4.3-17.8,0" id="Right_2_"></path> </g> <g id="Cheeks"> <ellipse class="st9" cx="225.4" cy="237.5" rx="9.7" ry="6.5"></ellipse> <ellipse class="st9" cx="295.1" cy="237.5" id="Right_3_" rx="9.7" ry="6.5"></ellipse> </g> <g id="Mouth"> <path class="st10" d="M273.4,253.2l-2,5l-0.2,0.5c-0.4,1-1,2-1.9,3.4c-0.3,0.4-0.6,0.8-0.9,1.2 c-0.8,0.9-1.9,1.8-3.1,2.5c-0.1,0.1-0.2,0.1-0.4,0.2c-0.5,0.3-1,0.5-1.5,0.7c-0.5,0.2-1.1,0.4-1.7,0.6 c-0.5,0.2-1,0.2-1.5,0.2c-0.5,0-1-0.1-1.5-0.2h0c-0.6-0.2-1.2-0.4-1.7-0.6c-0.5-0.2-1-0.5-1.5-0.7c-0.1-0.1-0.2-0.1-0.4-0.2 c-1.2-0.7-2.3-1.6-3.1-2.5c-0.4-0.4-0.7-0.8-1-1.3c-0.8-1.1-1.4-2.3-1.8-3.3l-2.2-5.5c-0.4-1,0.3-2.1,1.4-2.1H272 C273.1,251.1,273.8,252.2,273.4,253.2z" id="Mouth_1_"></path> </g> <g id="Tongue"> <path class="st11" d="M268.3,263.4c-0.2,0.3-0.7,0.8-1.1,1.1c-0.8,0.7-1.7,1.2-2.7,1.8 c-0.1,0.1-0.3,0.2-0.4,0.2c-0.4,0.2-0.8,0.3-1.2,0.5c-0.4,0.2-0.9,0.3-1.4,0.5c-0.4,0.1-0.8,0.2-1.2,0.2 c-0.4,0-0.8-0.1-1.2-0.2h0c-0.5-0.1-1-0.3-1.4-0.5c-0.4-0.2-0.8-0.3-1.2-0.5c-0.1-0.1-0.3-0.1-0.4-0.2 c-1-0.6-2.1-1.2-2.8-1.9c-0.3-0.3-0.7-0.5-0.9-0.9c0.6-2,3-3.9,5.2-3.9c1.3,0,2.6,0.5,3.4,1.4c0.1,0.1,0.1,0.1,0.2,0 c0.7-0.5,1.5-0.8,2.5-0.8C265.5,260.2,267.7,261.7,268.3,263.4z" id="Tongue_1_"></path> <path class="st12" d="M260.9,260.9c0,0,1,0.8,1.5,2.4" id="Line"></path> </g> </g> </g> <g id="Body"> <path class="st13" d="M324,469.8H196.5c-14,0-25.5-11.5-25.5-25.5v-79.9c0-36.8,29.9-66.7,66.7-66.7h45.2 c36.8,0,66.7,29.9,66.7,66.7v79.9C349.5,458.3,338.1,469.8,324,469.8z"></path> </g> <g id="Neck"> <path class="st6" d="M283.4,285.3v18c0,0.6-0.3,1.2-0.7,1.5c-20.4,16.6-40.5,3.1-44.6,0c-0.5-0.4-0.8-1-0.8-1.6 v-18.1c6.7,3.5,14.4,5.8,23.3,5.9l0.7,0C269.6,290.8,276.9,288.6,283.4,285.3z" id="Neck_1_"></path> </g> </g> <g id="Headphones"> <path class="st13" d="M348.3,227.5v8c0,11.3-9.2,20.5-20.5,20.5h-15.3v-2.4c6.2-12.3,9.3-25.9,9.3-39.8V207h6 C339.1,207,348.3,216.2,348.3,227.5z" id="Speaker"></path> <g id="Mic"> <g> <path class="st1" d="M276.1,269.7h38.5c5.1,0,9.2-4.1,9.2-9.2v-0.6V256"></path> <path class="st13" d="M278.7,274.1h-4.4c-2.4,0-4.4-2-4.4-4.4l0,0c0-2.4,2-4.4,4.4-4.4h4.4c2.4,0,4.4,2,4.4,4.4l0,0 C283.1,272.1,281.1,274.1,278.7,274.1z"></path> </g> </g> </g> </g> <g id="Speech_balloon"> <path class="st14" d="M185.8,65.1v60.8c0,9-7.3,16.2-16.2,16.2h0v21.6c0,1.2-1.3,1.9-2.3,1.3l-36.1-22.9H58.8 c-9,0-16.2-7.3-16.2-16.2V65.1c0-9,7.3-16.2,16.2-16.2h110.8C178.6,48.9,185.8,56.1,185.8,65.1z" id="Shadow_2_"></path> <g id="Speech_balloon_1_"> <path class="st15" d="M178.3,56.9v58.6c0,8.6-7,15.6-15.6,15.6h0v20.8c0,1.1-1.3,1.8-2.2,1.2l-34.8-22H56 c-8.6,0-15.6-7-15.6-15.6V56.9c0-8.6,7-15.6,15.6-15.6h106.7C171.3,41.3,178.3,48.3,178.3,56.9z" id="Shape"></path> <g id="Text"> <line class="st16" id="_x34_th_line" x1="55.2" x2="79.6" y1="98.1" y2="98.1"></line> <line class="st16" id="_x33_rd_line" x1="55.2" x2="104" y1="88.8" y2="88.8"></line> <line class="st16" id="_x32_nd_line" x1="55.2" x2="104" y1="79.5" y2="79.5"></line> <line class="st16" id="_x31_st_line" x1="55.2" x2="104" y1="70.2" y2="70.2"></line> </g> <path class="st17" d="M156.2,115.6h-27.8c-4.3,0-7.8-3.5-7.8-7.8V67.3c0-4.3,3.5-7.8,7.8-7.8h27.8 c4.3,0,7.8,3.5,7.8,7.8v40.5C164.1,112.1,160.6,115.6,156.2,115.6z" id="Body_background"></path> <g id="Person"> <path class="st18" d="M152.5,107.1h-19.3c-0.7,0-1.2-0.5-1.2-1.2v-8c0-5.7,4.6-10.3,10.3-10.3h1.2 c5.7,0,10.3,4.6,10.3,10.3v8C153.7,106.5,153.1,107.1,152.5,107.1z" id="Body_1_"></path> <circle class="st19" cx="142.8" cy="74.8" id="Head" r="5.8"></circle> </g> <path class="st3" d="M47.4,55.4c0.9-2.6,2.7-4.7,5-6" id="Line:_top_left"></path> </g> </g> <g id="Laptop"> <path class="st13" d="M381.8,471h-243c-11.4,0-20.7-9.3-20.7-20.7v-7.2c0-0.5,0.4-0.9,0.9-0.9h282.6 c0.5,0,0.9,0.4,0.9,0.9v7.2C402.5,461.7,393.2,471,381.8,471z" id="Laptop_bottom"></path> <path class="st20" d="M360.5,471H160.9c-10.4,0-18.9-8.5-18.9-18.9V332.2c0-8.5,6.9-15.4,15.4-15.4H364 c8.5,0,15.4,6.9,15.4,15.4v119.9C379.4,462.5,370.9,471,360.5,471z" id="Latop_top"></path> <g> <path class="st21" d="M277.7,396c0,7-4.2,13-10.2,15.5c0.4-0.9,0.6-1.9,0.6-2.9c0-4.3-3.5-7.8-7.8-7.8c-4.3,0-7.8,3.5-7.8,7.8 c0,0.8,0.1,1.6,0.4,2.3c-5.4-2.8-9-8.5-9-15c0-9.4,7.6-16.9,16.9-16.9C270.1,379,277.7,386.6,277.7,396z"></path> <path class="st22" d="M268,408.6c0,1-0.2,2-0.6,2.9c-2.1,0.9-4.3,1.4-6.7,1.4c-2.9,0-5.5-0.7-7.9-2c-0.2-0.7-0.4-1.5-0.4-2.3 c0-4.3,3.5-7.8,7.8-7.8C264.6,400.9,268,404.3,268,408.6z"></path> </g> <path class="st3" d="M360.1,323.6c5.7,0,10.4,4.7,10.4,10.4" id="Line:_right_top_1_"></path> <line class="st3" id="Line:_right_middle" x1="370.6" x2="370.6" y1="386.2" y2="404.3"></line> <g id="Lines:_left"> <line class="st23" id="Bottom_1_" x1="183" x2="189.6" y1="378.1" y2="383.2"></line> <line class="st23" id="Middle_2_" x1="183" x2="196.1" y1="371.9" y2="381.9"></line> <line class="st23" id="Top_1_" x1="192.5" x2="196.1" y1="372.7" y2="375.5"></line> </g> <g id="Laptop_sparkle"> <line class="st24" id="Bottom" x1="404" x2="395.6" y1="314.6" y2="317"></line> <line class="st24" id="Middle" x1="395" x2="388.3" y1="302.5" y2="309.6"></line> <line class="st24" id="Top" x1="379.7" x2="381.2" y1="303.5" y2="294.4"></line> </g> </g> </g> </g> </g></svg>

<svg viewBox="0 0 512 512" id="Layer_1" version="1.1" xml:space="preserve" xmlns="http://www.w3.org/2000/svg" xmlns:xlink="http://www.w3.org/1999/xlink" fill="#F55EA9" stroke="#F55EA9"><g id="SVGRepo_bgCarrier" stroke-width="0"></g><g id="SVGRepo_iconCarrier"> <style type="text/css"> .st0{fill:#333333;} </style> <g> <circle class="st0" cx="218.4" cy="91.8" r="39.7"></circle> <path class="st0" d="M468.3,383.3L431,278.5c-2.7-7.6-9.8-12.8-17.9-12.9l-67.7-1.4c4.1,5.7,6.5,12.6,6.5,20c0,2.2-0.2,4.4-0.6,6.5 h35.3l48.4,125.8L457,408C466.8,404.2,471.8,393.3,468.3,383.3z"></path> <path class="st0" d="M240.9,173.6c-1,0-2.1,0.1-3.1,0.2c0,0-0.1,0-0.1,0c0,0,0,0-0.1,0c-13.5,1.9-22.4,15.2-19,28.5l22.8,88.4h95.4 c0.7-2,1.1-4.3,1.1-6.5c0-11.1-8.9-20.3-20-20.5h-0.1l-29.4-0.6l-25.8-74c0,0,0-0.1,0-0.1C259.3,179.6,250.5,173.6,240.9,173.6z"></path> <path class="st0" d="M421.8,421.6l-44.9-116.9h-31.8c0,0,0,0,0,0H230.6l0,0h-3.6L179.8,182l-28.6-74.4c-5.9-15.4-23.2-23-38.5-17.1 l0,0c-15.4,5.9-23,23.2-17.1,38.5l8.9,23l0,0l35.7,92.9l22.9,59.7l22.9,59.6h150l27.5,71.5l2.7,7.1c5.2,13.5,20.4,20.3,34,15.1 l6.6-2.5C420.3,450.3,427,435.1,421.8,421.6L421.8,421.6z"></path> <path class="st0" d="M176.3,378.3L150,309.7L127,250.1l-37.7-97.9H42.6v283.7h305.8l-22.1-57.5H176.3z M108.4,395.3H77.6v-56.8 h30.8V395.3z M108.4,304.7H77.6v-56.8h30.8V304.7z M293.1,402.3h-107c-3.9,0-7-3.1-7-7c0-3.9,3.1-7,7-7h107c3.9,0,7,3.1,7,7 C300.1,399.1,297,402.3,293.1,402.3z"></path> </g> </g></svg>