<svg width="187" height="36" viewBox="0 0 187 36" fill="none" xmlns="http://www.w3.org/2000/svg">
<path d="M59.5866 9.0923C62.2596 9.0923 64.3978 9.98265 66.1798 11.8227L66.2986 11.9414L68.6746 9.6265L68.6151 9.5078C66.4768 7.13355 63.2098 5.8277 59.4678 5.8277C52.1026 5.8277 46.6973 10.9324 46.6973 17.9958C46.6973 25.0593 52.0431 30.1637 59.4083 30.1637C63.1506 30.1637 66.4173 28.858 68.6151 26.4242L68.6746 26.3055L66.2986 23.9907L66.1798 24.1094C64.3978 25.9495 62.2001 26.8993 59.5866 26.8993C54.2408 26.8993 50.3801 23.1597 50.3801 17.9958C50.3801 12.8318 54.3003 9.0923 59.5866 9.0923ZM78.8316 27.0772C75.3271 27.0772 72.8918 24.5249 72.8918 20.9636C72.8918 17.3428 75.3271 14.8498 78.8316 14.8498C82.3361 14.8498 84.7713 17.3428 84.7713 20.9636C84.7713 24.5843 82.3361 27.0772 78.8316 27.0772ZM78.8316 11.7633C73.3076 11.7633 69.3278 15.6215 69.3278 20.9636C69.3278 26.3055 73.3076 30.1637 78.8316 30.1637C84.3556 30.1637 88.3351 26.3055 88.3351 20.9636C88.3351 15.6215 84.2961 11.7633 78.8316 11.7633ZM99.0268 27.0772C95.5223 27.0772 93.0276 24.5249 93.0276 20.9042C93.0276 17.2835 95.4628 14.7311 99.0268 14.7311C102.531 14.7311 104.967 17.2835 104.967 20.9042C104.967 24.5249 102.531 27.0772 99.0268 27.0772ZM104.967 14.2563C103.482 12.535 101.343 11.6446 98.7893 11.6446C93.3246 11.6446 89.5231 15.4434 89.5231 20.9042C89.5231 26.365 93.3246 30.1637 98.7893 30.1637C101.403 30.1637 103.66 29.1548 105.085 27.374V29.9263H108.471V4.64057H104.907L104.967 14.2563ZM119.875 14.7311C122.786 14.7311 124.984 16.6899 125.399 19.539H114.411C114.767 16.6899 116.906 14.7311 119.875 14.7311ZM119.875 11.7633C114.648 11.7633 110.906 15.6215 110.906 20.9636C110.906 26.365 114.827 30.1637 120.529 30.1637C123.499 30.1637 125.934 29.1548 127.597 27.2553L127.657 27.196L125.696 24.9404L125.578 25.0592C124.33 26.4242 122.667 27.1365 120.588 27.1365C117.262 27.1365 114.827 25.2373 114.351 22.21H128.607V22.0913C128.666 21.7946 128.666 21.3791 128.666 21.0823C128.726 15.5621 125.043 11.7633 119.875 11.7633ZM144.941 24.5843C143.872 26.187 142.209 27.0772 140.13 27.0772C136.507 27.0772 134.072 24.5843 134.072 20.9636C134.072 17.3428 136.566 14.8498 140.13 14.8498C142.209 14.8498 143.872 15.6808 144.941 17.3428L145.001 17.4615L147.733 15.7402L147.674 15.6215C146.248 13.1879 143.516 11.7633 140.19 11.7633C134.606 11.7633 130.508 15.6215 130.508 20.9636C130.508 26.3055 134.606 30.1637 140.19 30.1637C143.516 30.1637 146.248 28.7393 147.674 26.2463L147.733 26.1275L145.001 24.4656L144.941 24.5843ZM158.425 27.0772C154.92 27.0772 152.485 24.5249 152.485 20.9636C152.485 17.3428 154.92 14.8498 158.425 14.8498C161.929 14.8498 164.364 17.3428 164.364 20.9636C164.364 24.5843 161.929 27.0772 158.425 27.0772ZM158.425 11.7633C152.901 11.7633 148.921 15.6215 148.921 20.9636C148.921 26.3055 152.901 30.1637 158.425 30.1637C163.949 30.1637 167.928 26.3055 167.928 20.9636C167.928 15.6215 163.889 11.7633 158.425 11.7633ZM182.897 11.7633L176.838 25.6528L170.898 11.7633H167.275L175.056 29.5107L175.115 29.5702H178.561L186.342 11.7633H182.897ZM19.0327 0C8.61976 0 0.138306 8.3916 0.138306 18.6294V18.7133L3.32936 20.5595H3.41333C5.42873 19.2168 7.86401 18.7133 10.2993 19.1329C11.9788 19.4685 13.5743 20.2238 14.8339 21.3986L15.4217 21.9021L15.7576 21.2308C16.0935 20.5595 16.4294 19.972 16.7653 19.3846C16.9333 19.1329 17.1012 18.965 17.2692 18.7133L17.6051 18.2937L17.1852 17.958C15.4217 16.5315 13.3224 15.5245 11.055 15.1049C8.87168 14.6853 6.68836 14.7692 4.67296 15.4405C6.18451 8.8112 12.0627 4.1119 19.0327 4.1119C22.9795 4.1119 26.6743 5.62237 29.4456 8.3916C31.4611 10.3217 32.8046 12.7552 33.3923 15.4405C32.1328 15.021 30.7891 14.8532 29.4456 14.8532H29.1936C28.6898 14.8532 28.1858 14.937 27.5981 14.937H27.5141C27.3461 14.937 27.0943 15.021 26.9263 15.021C26.5903 15.1049 26.3386 15.1049 26.0026 15.1888L25.7506 15.2727C25.4988 15.3567 25.2468 15.4406 24.9949 15.5245H24.9109C24.3231 15.6923 23.8192 15.9441 23.2314 16.1958C22.9795 16.2797 22.7276 16.4476 22.4756 16.6154H22.3917C21.132 17.3706 19.9564 18.2937 19.0327 19.4685L18.9487 19.6364C18.6968 19.972 18.5288 20.2238 18.3609 20.3916C18.1929 20.5594 18.1089 20.8112 17.941 21.0629L17.857 21.2308C17.6891 21.4825 17.6051 21.7343 17.5211 21.9021V21.986C17.2692 22.4895 17.0173 23.0769 16.8493 23.6643V23.7482C16.4294 25.091 16.1775 26.5175 16.1775 28.028V28.1957C16.1775 28.3637 16.1775 28.6155 16.1775 28.7833C16.1775 28.8673 16.1775 28.951 16.1775 29.035C16.1775 29.119 16.1775 29.2868 16.1775 29.3708V29.4545V29.6225C16.1775 29.7902 16.2615 30.042 16.2615 30.2097C16.6814 32.2237 17.6051 34.1538 19.0327 35.916L19.1166 36L19.2006 35.916C19.7884 35.2448 21.132 33.1468 21.3 31.888C20.6282 30.6293 20.2923 29.2028 20.2923 27.8603C20.2923 23.1609 23.9872 19.2168 28.7738 18.965H29.1096C31.0411 18.8811 32.9726 19.4685 34.5681 20.5595H34.6521L37.8431 18.7133V18.6294C37.8431 13.6783 35.9116 8.97902 32.3008 5.45455C28.7738 1.93007 24.0712 0 19.0327 0Z" fill="black" fill-opacity="0.4"/>
</svg>
