<svg width="236" height="36" viewBox="0 0 236 36" fill="none" xmlns="http://www.w3.org/2000/svg">
<path d="M100.4 23.0369C98.0178 23.0369 95.4801 21.3969 95.4801 17.7657C95.4801 14.1345 98.0178 12.4946 100.4 12.4946C102.782 12.4946 105.319 14.1345 105.319 17.7657C105.319 21.3969 102.782 23.0369 100.4 23.0369ZM109.185 17.8048C109.185 12.1041 104.929 8.7462 100.165 8.7462C95.4018 8.7462 91.5363 12.4946 91.5363 17.8048C91.5363 22.8807 95.0896 26.59 99.6188 26.8633C100.322 26.9025 103.406 26.8633 105.827 24.2863H105.905L108.716 26.8633H109.263V17.961C109.224 17.961 109.185 17.8048 109.185 17.8048ZM135.385 0.039048C136.79 0.039048 137.923 1.17137 137.923 2.577C137.923 3.98265 136.79 5.11497 135.385 5.11497C134.057 5.11497 132.925 3.98265 132.925 2.577C132.925 1.17137 134.018 0.039048 135.385 0.039048ZM133.588 26.8633H137.259V8.78525H133.588V26.8633ZM153.658 20.6161C152.76 22.295 151.042 23.0759 149.402 23.0759C147.02 23.0759 144.482 21.436 144.482 17.8048C144.482 14.1735 147.02 12.5336 149.402 12.5336C151.042 12.5336 152.76 13.3145 153.658 14.9544L157.055 12.9631C155.493 10.2299 152.643 8.66813 149.402 8.66813C144.638 8.66813 140.539 12.2213 140.539 17.7267C140.539 23.2711 144.599 26.8242 149.402 26.8242C152.643 26.8242 155.493 25.2625 157.055 22.5293L153.658 20.6161ZM80.7598 8.3948C79.3541 8.3948 77.9875 8.78525 76.8943 9.44903C76.4258 9.7614 75.4886 10.4642 75.0981 11.167H75.0201C74.6296 10.4642 73.6926 9.7614 73.2241 9.44903C72.0916 8.7462 70.7641 8.3948 69.3586 8.3948C65.1416 8.3948 61.7056 11.9089 61.7056 16.2039V26.7073H65.6101V16.2039C65.6101 14.0954 67.2891 12.3384 69.3976 12.3384C71.4668 12.3384 73.1848 14.0564 73.1848 16.2039V26.7073H77.0506V16.2039C77.0506 14.0954 78.7293 12.3384 80.8378 12.3384C82.9073 12.3384 84.6253 14.0564 84.6253 16.2039V26.7073H88.5298V16.2039C88.4128 11.8698 84.9768 8.3948 80.7598 8.3948ZM173.571 26.7073C169.823 26.7073 166.816 24.3644 166.816 20.0304V3.82647H170.604V19.718C170.604 21.8265 171.775 22.8807 173.571 22.8807V26.7073ZM226.048 23.3102C223.667 23.3102 221.129 21.6703 221.129 18.039C221.129 14.4078 223.667 12.7679 226.048 12.7679C228.43 12.7679 230.968 14.4078 230.968 18.039C230.929 21.6703 228.391 23.3102 226.048 23.3102ZM234.912 18C234.912 12.4946 230.851 8.94145 226.048 8.94145C221.48 8.94145 217.536 12.1822 217.185 17.2191V35.922H220.855V24.5206C222.378 26.7463 225.346 27.0195 226.322 27.0585H226.673H226.634C230.812 26.9805 234.912 23.5445 234.912 18ZM204.964 23.2712C202.582 23.2712 200.044 21.6312 200.044 18C200.044 14.3688 202.582 12.7289 204.964 12.7289C207.346 12.7289 209.883 14.3688 209.883 18C209.844 21.6703 207.306 23.2712 204.964 23.2712ZM213.71 18C213.71 12.2993 209.454 8.94145 204.69 8.94145C199.927 8.94145 196.061 12.6898 196.061 18C196.061 23.154 199.693 26.8243 204.261 27.0585H204.612C205.159 27.0585 206.057 26.9805 207.111 26.59C207.385 26.512 207.619 26.3558 207.892 26.2385C208.634 25.8483 209.415 25.3015 210.118 24.5206H210.196L213.163 27.0195H213.71V18ZM184.543 12.6117C186.925 12.6117 188.643 14.0174 189.346 15.9306H179.818C180.521 13.9393 182.239 12.6117 184.543 12.6117ZM188.682 21.1236C187.784 22.4121 186.3 23.1931 184.543 23.1931C181.849 23.1931 180.014 21.475 179.545 19.2104H193.367C193.406 18.82 193.445 18.3904 193.445 18C193.445 13.0022 189.463 8.9024 184.543 8.9024C179.623 8.9024 175.641 13.0022 175.641 18C175.641 22.9978 179.623 27.0975 184.543 27.0975C187.823 27.0975 190.634 25.3015 192.196 22.6464L188.682 21.1236ZM120.938 23.0759C118.556 23.0759 116.018 21.436 116.018 17.8048C116.018 14.1735 118.556 12.5336 120.938 12.5336C123.319 12.5336 125.896 14.1735 125.896 17.8048C125.936 21.475 123.359 23.0759 120.938 23.0759ZM129.801 17.7657C129.801 12.2603 125.701 8.78525 120.938 8.78525C116.174 8.78525 112.074 12.3384 112.074 17.8438C112.074 23.3883 116.174 26.9415 120.664 26.9415H121.172C122.656 26.7852 124.1 26.1995 125.233 25.1845L125.467 24.9501C125.74 24.6378 125.936 24.2473 126.014 23.8959V26.629C126.014 26.629 126.092 28.6595 124.764 30.2213C123.827 31.3927 122.343 31.9783 120.977 31.9783C119.22 31.9783 117.306 31.0413 116.487 29.089L112.855 30.6117C114.261 33.8525 117.385 35.8047 120.899 35.8047C125.701 35.8047 129.762 32.2518 129.762 26.7463L129.801 17.7657ZM42.9636 13.3926C40.9723 5.70065 34.1003 0 25.9398 0C17.7793 0 10.9073 5.70065 8.91596 13.3926C4.85523 16.9848 1.96585 21.7093 0.638306 26.9415C3.52768 25.9263 6.49513 25.1063 9.54068 24.5597C12.1177 31.2755 18.4821 36 25.9398 36C33.4366 36 39.8011 31.2755 42.3391 24.5597C45.6188 25.1845 48.5863 25.9653 51.2413 26.9415C49.9138 21.7093 47.0243 16.9848 42.9636 13.3926ZM20.5125 13.0802C19.7316 15.6182 17.4279 17.1019 15.3975 16.4382C13.3281 15.7744 12.3129 13.2365 13.0548 10.6985C13.7967 8.16052 16.1394 6.6768 18.1698 7.34058C20.2001 7.9653 21.2544 10.5814 20.5125 13.0802ZM36.4041 16.4382C34.3346 17.1019 32.0701 15.5792 31.2891 13.0802C30.5081 10.5423 31.5623 8.00435 33.6318 7.34058C35.7013 6.6768 37.9658 8.19957 38.7468 10.6985C39.5668 13.2365 38.5126 15.7744 36.4041 16.4382Z" fill="black" fill-opacity="0.4"/>
</svg>
