<svg width="141" height="36" viewBox="0 0 141 36" fill="none" xmlns="http://www.w3.org/2000/svg">
<path fill-rule="evenodd" clip-rule="evenodd" d="M61.4571 23.8979V5.56477C61.4571 2.50325 58.9716 0 55.8921 0H5.95308C2.89156 0 0.388306 2.48524 0.388306 5.56477V23.8979C0.388306 26.9595 2.87355 29.4627 5.95308 29.4627H42.1151L51.9121 36L49.9491 29.4627H55.9281C58.9716 29.4447 61.4748 26.9595 61.4571 23.8979ZM10.9416 18.4232C11.2297 18.9275 11.6079 19.3237 12.0942 19.5758C12.5804 19.8459 13.1027 19.972 13.697 19.972C14.2913 19.972 14.8315 19.8279 15.3178 19.5578C15.804 19.2696 16.2002 18.8734 16.4704 18.3692C16.7585 17.8469 16.9026 17.2706 16.9026 16.6043V8.37418C16.9026 8.24813 16.9386 8.15808 17.0106 8.08605C17.0827 8.014 17.1727 7.978 17.2988 7.978H19.2978C19.4238 7.978 19.5319 8.014 19.6039 8.08605C19.6399 8.12205 19.676 8.17607 19.694 8.2121C19.712 8.26612 19.73 8.32015 19.712 8.37418V16.5863C19.712 17.9009 19.4418 18.9995 18.9016 19.9C18.3613 20.7824 17.6409 21.4487 16.7405 21.8629C15.84 22.2951 14.8135 22.4932 13.697 22.4932C12.5804 22.4932 11.5719 22.2771 10.6534 21.8449C9.73498 21.4127 9.01463 20.7464 8.47436 19.8639C7.93408 18.9815 7.66396 17.8829 7.66396 16.5683V8.37418C7.66396 8.26612 7.69996 8.17607 7.77201 8.10405C7.80801 8.06802 7.84403 8.03203 7.88006 8.014C7.91608 7.996 7.97011 7.978 8.02413 7.978H10.1312C10.2572 7.978 10.3653 8.014 10.4193 8.08605C10.4734 8.15808 10.5094 8.24813 10.5094 8.37418V16.6043C10.5094 17.3067 10.6534 17.919 10.9416 18.4232ZM21.6029 19.8459C21.6029 19.9 21.6209 19.972 21.6389 20.026C21.675 20.098 21.711 20.1701 21.747 20.2421C22.1972 20.9445 22.8095 21.5028 23.5659 21.899C24.3223 22.2952 25.1867 22.4932 26.1413 22.4932C26.8976 22.4932 27.6358 22.3492 28.3383 22.0791C29.0406 21.7909 29.5988 21.3767 30.0491 20.8004C30.4813 20.2421 30.6976 19.5578 30.6976 18.7474C30.6976 17.901 30.4273 17.1266 29.8871 16.4602C29.3468 15.7759 28.5363 15.2896 27.4378 14.9475C27.2938 14.8935 27.1678 14.8574 27.0416 14.8214C26.9156 14.7854 26.8076 14.7494 26.7176 14.7314C26.1773 14.5873 25.7811 14.4612 25.5288 14.3532C25.2768 14.2451 25.0606 14.1191 24.9166 13.975C24.7545 13.8129 24.6825 13.6148 24.6825 13.3447C24.6825 13.0025 24.8265 12.7324 25.1147 12.5162C25.4028 12.3001 25.7991 12.1921 26.3033 12.1921C26.7896 12.1921 27.1858 12.2822 27.5098 12.4442C27.8341 12.6063 28.1401 12.8765 28.4463 13.2186C28.5543 13.3447 28.6446 13.4167 28.7526 13.4167C28.8246 13.4167 28.9146 13.3807 29.0046 13.2907L30.1391 12.3542C30.2653 12.2461 30.3373 12.1561 30.3373 12.066C30.3373 11.994 30.2833 11.886 30.1933 11.7419C29.7611 11.2016 29.2208 10.7334 28.5723 10.3732C27.9241 9.995 27.1498 9.8149 26.2313 9.8149C25.3848 9.8149 24.6464 9.977 23.9981 10.3191C23.3498 10.6613 22.8635 11.0936 22.5034 11.6338C22.1612 12.1741 21.9811 12.7143 21.9811 13.2726C21.9811 13.957 22.1072 14.5513 22.3773 15.0375C22.6474 15.5238 23.0436 15.938 23.5839 16.2801C24.1242 16.6223 24.8265 16.9285 25.7091 17.1986C26.0871 17.3067 26.3213 17.3787 26.3753 17.3967C26.8076 17.5228 27.1316 17.6308 27.3298 17.7208C27.5458 17.8109 27.7081 17.919 27.8161 18.0811C27.9421 18.2431 27.9961 18.4592 27.9961 18.7474C27.9961 19.0175 27.8881 19.2696 27.6901 19.4858C27.4738 19.7019 27.2218 19.8639 26.8976 19.99C26.5913 20.098 26.2493 20.1701 25.9251 20.1701C25.3848 20.1701 24.9346 20.044 24.5744 19.7919C24.2142 19.5398 23.8721 19.1976 23.5659 18.7654C23.4578 18.6213 23.3498 18.5493 23.2237 18.5493C23.1517 18.5493 23.0797 18.5853 23.0076 18.6213L21.765 19.5037C21.6569 19.6118 21.6029 19.7198 21.6029 19.8459ZM41.9351 18.8194C42.0431 18.8194 42.1151 18.8554 42.1693 18.9455L43.1598 20.1521C43.2318 20.2601 43.2858 20.3502 43.2858 20.4402C43.2858 20.5483 43.2318 20.6383 43.1418 20.7284C42.4213 21.3587 41.7191 21.8089 40.9986 22.097C40.2963 22.3672 39.5218 22.5112 38.7116 22.5112C37.6128 22.5112 36.5683 22.2231 35.5958 21.6648C34.6233 21.0886 33.8491 20.3322 33.2728 19.3597C32.6966 18.3872 32.4083 17.3427 32.4083 16.2081C32.4083 15.0555 32.6786 13.993 33.2188 13.0385C33.7591 12.066 34.4973 11.3096 35.4518 10.7334C36.4063 10.1571 37.4688 9.88695 38.6393 9.88695C39.5938 9.88695 40.5303 10.121 41.4668 10.5893C42.4033 11.0575 43.1778 11.7599 43.7901 12.7143C44.4023 13.6688 44.7086 14.8394 44.7086 16.2261C44.7086 16.5323 44.6726 16.7664 44.6003 16.9104C44.5283 17.0545 44.4203 17.1446 44.3123 17.1626C44.1863 17.1986 43.9881 17.2166 43.7361 17.1986H35.0916C35.2178 17.7749 35.4698 18.2792 35.8121 18.7113C36.1543 19.1436 36.5863 19.4858 37.0906 19.7199C37.5948 19.954 38.1351 20.08 38.7116 20.08C39.1618 20.08 39.5398 20.026 39.8821 19.936C40.2063 19.8459 40.4763 19.7379 40.6926 19.6118C40.9446 19.4677 41.1788 19.3056 41.3948 19.1256L41.6831 18.9095C41.7731 18.8374 41.8631 18.8194 41.9351 18.8194ZM37.1628 12.5703C36.6946 12.8044 36.2983 13.1286 35.9561 13.5248C35.6138 13.9209 35.3618 14.3712 35.1818 14.8755H42.0431C41.7551 14.083 41.3048 13.4347 40.7106 12.9485C40.1161 12.4622 39.4138 12.2281 38.6393 12.2281C38.1351 12.2101 37.6308 12.3362 37.1628 12.5703ZM48.7066 9.977H47.3198C47.0676 9.977 46.9416 10.121 46.9416 10.3912V21.881C46.9416 22.1511 47.0676 22.2771 47.3198 22.2771H49.3008C49.5708 22.2771 49.6971 22.1511 49.6971 21.881V15.1456C49.6971 14.5333 49.8051 14.029 50.0391 13.6148C50.2733 13.2006 50.5613 12.8945 50.9396 12.6964C51.2998 12.4983 51.6961 12.3902 52.1101 12.3902C52.5243 12.3902 52.9026 12.4622 53.2628 12.6063C53.6228 12.7684 53.9651 12.9485 54.2893 13.1646C54.3973 13.2366 54.5053 13.2907 54.5953 13.2907C54.7036 13.2907 54.7756 13.2366 54.8656 13.1286L55.7661 11.8499C55.8381 11.7599 55.8741 11.6698 55.8741 11.5798C55.8741 11.4537 55.8021 11.3277 55.6581 11.1836C55.2978 10.8774 54.8296 10.5713 54.2533 10.2831C53.6951 9.995 53.0826 9.85093 52.4163 9.85093C51.8041 9.85093 51.2458 9.995 50.7416 10.2831C50.2373 10.5713 49.8231 10.9675 49.4988 11.4897L49.3008 10.4272C49.2648 10.2291 49.2108 10.103 49.1026 10.049C49.0126 9.995 48.8866 9.977 48.7066 9.977Z" fill="black" fill-opacity="0.4"/>
<path d="M65.0046 7.97803H75.3058C75.5578 7.97803 75.6841 8.1041 75.6841 8.35623V10.1751C75.6841 10.4273 75.5578 10.5713 75.3058 10.5713H71.5058V21.899C71.5058 22.1511 71.3798 22.2772 71.1276 22.2772H69.0566C68.8046 22.2772 68.6786 22.1511 68.6786 21.899V10.5533H64.9866C64.7346 10.5533 64.6083 10.4273 64.6083 10.1571V8.35623C64.6263 8.1041 64.7526 7.97803 65.0046 7.97803Z" fill="black" fill-opacity="0.4"/>
<path d="M84.8866 18.8197C84.9946 18.8197 85.0666 18.8557 85.1206 18.9457L86.1111 20.1524C86.1831 20.2604 86.2371 20.3504 86.2371 20.4405C86.2371 20.5485 86.1831 20.6386 86.0931 20.7286C85.3728 21.359 84.6703 21.8092 83.9501 22.0973C83.2296 22.3855 82.4733 22.5115 81.6628 22.5115C80.5643 22.5115 79.5198 22.2234 78.5473 21.6651C77.5748 21.0888 76.8006 20.3324 76.2241 19.36C75.6478 18.3875 75.3598 17.3429 75.3598 16.2084C75.3598 15.0558 75.6298 13.9933 76.1701 13.0388C76.7103 12.0663 77.4488 11.3099 78.4033 10.7336C79.3578 10.1574 80.4203 9.88721 81.5908 9.88721C82.5453 9.88721 83.4998 10.1213 84.4183 10.5896C85.3548 11.0578 86.1291 11.7602 86.7413 12.7146C87.3538 13.6691 87.6598 14.8397 87.6598 16.2264C87.6598 16.5325 87.6238 16.7667 87.5518 16.9107C87.4798 17.0548 87.3718 17.1448 87.2638 17.1629C87.1376 17.1989 86.9396 17.2169 86.6873 17.2169H78.0611C78.1871 17.7932 78.4393 18.2974 78.7816 18.7296C79.1236 19.1619 79.5558 19.504 80.0601 19.7381C80.5643 19.9723 81.1046 20.0983 81.6988 20.0983C82.1491 20.0983 82.5273 20.0443 82.8696 19.9543C83.1936 19.8642 83.4638 19.7562 83.6798 19.6301C83.9321 19.486 84.1661 19.3239 84.3823 19.1438L84.6703 18.9277C84.7063 18.8377 84.7966 18.8197 84.8866 18.8197ZM80.0961 12.5706C79.6278 12.8047 79.2316 13.1288 78.8896 13.525C78.5473 13.9212 78.2953 14.3715 78.1151 14.8757H84.9946C84.7063 14.0833 84.2563 13.435 83.6618 12.9487C83.0676 12.4625 82.3653 12.2284 81.5728 12.2284C81.0686 12.2104 80.5463 12.3364 80.0961 12.5706Z" fill="black" fill-opacity="0.4"/>
<path d="M88.4883 20.0259C88.4703 19.9718 88.4523 19.8998 88.4523 19.8458C88.4523 19.7197 88.5063 19.6117 88.6146 19.5036L89.8391 18.5671C89.8931 18.5131 89.9651 18.4771 90.0553 18.4951C90.1813 18.4951 90.3073 18.5671 90.3973 18.7112C90.7036 19.1434 91.0458 19.4856 91.4058 19.7377C91.7661 19.9898 92.2163 20.1159 92.7566 20.1159C93.0988 20.1159 93.4228 20.0619 93.7291 19.9358C94.0533 19.8098 94.3233 19.6477 94.5213 19.4316C94.7196 19.2155 94.8276 18.9633 94.8276 18.6932C94.8276 18.4051 94.7736 18.1889 94.6476 18.0269C94.5213 17.8648 94.3593 17.7567 94.1613 17.6667C93.9631 17.5766 93.6391 17.4686 93.2068 17.3425C93.1348 17.3245 92.9186 17.2705 92.5406 17.1444C91.6581 16.8743 90.9556 16.5681 90.4153 16.226C89.8751 15.8838 89.4788 15.4696 89.2088 14.9833C88.9386 14.4971 88.8126 13.9028 88.8126 13.2185C88.8126 12.6602 88.9926 12.1199 89.3348 11.5796C89.6771 11.0394 90.1813 10.6072 90.8296 10.265C91.4778 9.92282 92.2163 9.76074 93.0628 9.76074C93.9631 9.76074 94.7556 9.94082 95.4038 10.319C96.0523 10.6972 96.5926 11.1474 97.0248 11.6877C97.1328 11.8138 97.1688 11.9218 97.1688 12.0119C97.1688 12.1019 97.0968 12.21 96.9706 12.3L95.8361 13.2365C95.7281 13.3085 95.6561 13.3625 95.5841 13.3625C95.4938 13.3625 95.3858 13.2905 95.2778 13.1644C94.9896 12.8223 94.6656 12.5701 94.3413 12.39C94.0171 12.228 93.6031 12.1379 93.1348 12.1379C92.6306 12.1379 92.2343 12.246 91.9461 12.4621C91.6581 12.6782 91.5138 12.9483 91.5138 13.2905C91.5138 13.5606 91.5861 13.7587 91.7481 13.9208C91.9101 14.0829 92.1083 14.209 92.3603 14.299C92.6126 14.4071 93.0266 14.5151 93.5491 14.6772C93.6571 14.6952 93.7651 14.7312 93.8731 14.7672C93.9991 14.8033 94.1253 14.8393 94.2693 14.8933C95.3678 15.2175 96.1783 15.7217 96.7186 16.4061C97.2588 17.0904 97.5288 17.8468 97.5288 18.6932C97.5288 19.4856 97.3128 20.1699 96.8806 20.7462C96.4483 21.3045 95.8721 21.7367 95.1698 22.0249C94.4673 22.313 93.7291 22.4571 92.9726 22.4391C92.0181 22.4391 91.1538 22.241 90.3973 21.8448C89.6411 21.4486 89.0468 20.8903 88.5786 20.1879C88.5606 20.1699 88.5246 20.0979 88.4883 20.0259Z" fill="black" fill-opacity="0.4"/>
<path d="M104.138 10.0673C104.408 10.0673 104.552 10.2114 104.552 10.4815V12.0663C104.552 12.1924 104.516 12.3004 104.426 12.3725C104.336 12.4445 104.228 12.4805 104.102 12.4805H102.716V18.4775C102.716 18.9097 102.788 19.2519 102.95 19.522C103.112 19.7742 103.382 19.9182 103.76 19.9363L104.066 19.9543C104.282 19.9723 104.426 20.0263 104.48 20.1344C104.534 20.2424 104.57 20.3685 104.552 20.4945V21.8632C104.552 22.1874 104.3 22.3495 103.814 22.3495C103.058 22.3495 102.391 22.2054 101.815 21.9172C101.221 21.6291 100.771 21.2149 100.446 20.6746C100.122 20.1344 99.9601 19.504 99.9601 18.7837V12.4985H98.8436C98.7356 12.4985 98.6273 12.4625 98.5553 12.3905C98.4653 12.3184 98.4293 12.2104 98.4293 12.0843V10.5175C98.4293 10.3735 98.4653 10.2654 98.5553 10.1754C98.6273 10.1033 98.7356 10.0673 98.8436 10.0673H99.9601V8.05032C99.9601 7.90624 99.9781 7.81619 100.032 7.74417C100.086 7.67212 100.194 7.63612 100.338 7.58209L102.301 7.00579C102.337 6.98779 102.373 6.98779 102.409 6.98779C102.445 6.98779 102.499 7.00579 102.535 7.02379C102.571 7.04182 102.607 7.07784 102.625 7.11384C102.68 7.18589 102.698 7.29394 102.698 7.41999V10.0493L104.138 10.0673Z" fill="black" fill-opacity="0.4"/>
<path d="M107.182 5.58301H108.857C109.217 5.58301 109.397 5.78111 109.397 6.19533V7.88816C109.397 8.08626 109.361 8.23033 109.271 8.30238C109.181 8.37441 109.037 8.42843 108.857 8.42843H107.182C106.786 8.42843 106.587 8.24836 106.587 7.88816V6.19533C106.587 5.78111 106.786 5.58301 107.182 5.58301ZM106.786 10.0853C106.858 10.0132 106.948 9.97721 107.056 9.97721H109.091C109.199 9.97721 109.289 10.0132 109.361 10.0853C109.433 10.1573 109.469 10.2474 109.469 10.3734V21.8812C109.469 22.1333 109.343 22.2774 109.091 22.2774H107.056C106.804 22.2774 106.678 22.1513 106.678 21.8812V10.3734C106.678 10.2474 106.714 10.1573 106.786 10.0853Z" fill="black" fill-opacity="0.4"/>
<path d="M114.223 22.1693C114.115 22.2413 113.971 22.2773 113.845 22.2773H112.08C111.81 22.2773 111.666 22.1333 111.666 21.8631V10.3734C111.666 10.1032 111.81 9.95917 112.08 9.95917H113.377C113.503 9.95917 113.647 10.0132 113.737 10.1032C113.845 10.1933 113.917 10.3194 113.953 10.4454L114.115 11.8321C114.583 11.1658 115.142 10.6795 115.808 10.3554C116.474 10.0312 117.195 9.86914 117.933 9.86914C118.671 9.86914 119.392 10.0492 120.094 10.4274C120.797 10.8056 121.373 11.3819 121.841 12.1563C122.291 12.9307 122.525 13.9031 122.525 15.0557V21.8451C122.525 22.1153 122.399 22.2413 122.147 22.2413H120.22C119.95 22.2413 119.806 22.1153 119.806 21.8451V15.1458C119.806 14.6775 119.698 14.2453 119.464 13.8311C119.23 13.4169 118.906 13.0747 118.509 12.8226C118.095 12.5705 117.645 12.4444 117.141 12.4444C116.708 12.4444 116.276 12.5525 115.862 12.7866C115.43 13.0207 115.088 13.3449 114.818 13.7771C114.547 14.2093 114.403 14.7135 114.403 15.2718V21.8271C114.385 21.9892 114.331 22.0792 114.223 22.1693Z" fill="black" fill-opacity="0.4"/>
<path d="M135.888 23.4297C135.348 24.4022 134.628 25.1405 133.691 25.6448C132.755 26.149 131.674 26.3832 130.467 26.3832C129.657 26.3832 128.865 26.239 128.09 25.969C127.298 25.6987 126.632 25.3208 126.073 24.8524C125.965 24.7624 125.911 24.6723 125.911 24.5643C125.911 24.4922 125.947 24.4022 126.037 24.2761L126.848 23.1055C126.938 22.9795 127.046 22.9074 127.19 22.9074C127.298 22.9074 127.406 22.9435 127.532 23.0335C128.378 23.6278 129.423 23.9159 130.702 23.9159C131.35 23.9159 131.926 23.7719 132.43 23.4837C132.935 23.2136 133.349 22.7994 133.619 22.2951C133.907 21.7909 134.051 21.2146 134.051 20.5662V20.5303C133.511 21.1065 132.935 21.5388 132.34 21.8269C131.746 22.115 131.044 22.2591 130.251 22.2591C129.189 22.2591 128.18 22.007 127.262 21.4667C126.325 20.9444 125.587 20.2061 125.029 19.2696C124.47 18.3331 124.182 17.2706 124.2 16.082C124.2 14.9655 124.47 13.9209 125.029 12.9664C125.587 12.012 126.325 11.2376 127.262 10.6613C128.198 10.085 129.189 9.79688 130.251 9.79688C131.782 9.79688 133.097 10.3912 134.195 11.5618L134.357 10.4272C134.375 10.2471 134.429 10.121 134.501 10.049C134.574 9.97697 134.682 9.94095 134.826 9.94095H136.374C136.609 9.94095 136.735 10.085 136.735 10.3552V19.8099C136.681 21.2686 136.41 22.4572 135.888 23.4297ZM133.619 14.2271C133.295 13.6508 132.863 13.1826 132.304 12.8404C131.746 12.4982 131.134 12.3181 130.431 12.3181C129.711 12.3181 129.081 12.4982 128.522 12.8404C127.964 13.1826 127.55 13.6508 127.226 14.2451C126.92 14.8394 126.758 15.4697 126.758 16.1721C126.758 16.9104 126.92 17.5587 127.244 18.135C127.568 18.7113 128.018 19.1616 128.577 19.4857C129.135 19.8099 129.765 19.972 130.449 19.972C131.134 19.972 131.746 19.8099 132.286 19.4677C132.827 19.1255 133.259 18.6573 133.583 18.081C133.889 17.4867 134.051 16.8564 134.051 16.1721C134.087 15.4517 133.925 14.8034 133.619 14.2271Z" fill="black" fill-opacity="0.4"/>
<path d="M139.022 9.97705C138.247 9.97705 137.617 10.6074 137.617 11.3818C137.617 12.1562 138.247 12.7865 139.022 12.7865C139.796 12.7865 140.426 12.1562 140.426 11.3818C140.426 10.6254 139.796 9.97705 139.022 9.97705ZM139.022 12.4983C138.427 12.4983 137.923 11.9941 137.923 11.3818C137.923 10.7695 138.427 10.2652 139.022 10.2652C139.616 10.2652 140.12 10.7515 140.12 11.3818C140.12 11.9941 139.616 12.4983 139.022 12.4983Z" fill="black" fill-opacity="0.4"/>
<path d="M138.481 10.6254C138.481 10.6254 138.499 10.6074 138.517 10.6074H139.166C139.256 10.6074 139.346 10.6254 139.418 10.6794C139.49 10.7335 139.544 10.7875 139.598 10.8595C139.634 10.9316 139.67 11.0216 139.67 11.1117C139.67 11.2017 139.652 11.2737 139.598 11.3638C139.544 11.4358 139.49 11.5079 139.4 11.5439L139.688 12.1022V12.1202V12.1382H139.67H139.4C139.382 12.1382 139.382 12.1382 139.364 12.1382C139.364 12.1382 139.346 12.1202 139.346 12.1022L139.094 11.5979H138.788V12.0841C138.788 12.1202 138.77 12.1202 138.752 12.1202H138.535C138.499 12.1202 138.499 12.1022 138.499 12.0841V10.6254C138.463 10.6434 138.463 10.6254 138.481 10.6254ZM138.77 11.3638H139.094C139.148 11.3638 139.184 11.3458 139.22 11.3278C139.256 11.3098 139.292 11.2737 139.31 11.2377C139.328 11.2017 139.346 11.1657 139.346 11.1117C139.346 11.0756 139.328 11.0216 139.31 10.9856C139.292 10.9496 139.256 10.9136 139.22 10.8956C139.184 10.8775 139.148 10.8595 139.094 10.8595H138.77V11.3638Z" fill="black" fill-opacity="0.4"/>
</svg>
