<svg width="154" height="36" viewBox="0 0 154 36" fill="none" xmlns="http://www.w3.org/2000/svg">
<path d="M133.037 18C133.037 12.3072 137.36 8.29517 143.088 8.29517C148.816 8.29517 153.138 12.3072 153.138 18C153.138 23.6928 148.816 27.7048 143.088 27.7048C137.36 27.7048 133.037 23.6385 133.037 18ZM147.465 18C147.465 15.3434 145.789 13.3916 143.142 13.3916C140.494 13.3916 138.819 15.3434 138.819 18C138.819 20.6566 140.494 22.6084 143.142 22.6084C145.789 22.6084 147.465 20.7108 147.465 18ZM129.254 13.5C129.633 14.259 129.795 15.0723 129.795 15.9397C129.795 18 128.714 19.8976 126.985 21.3615C129.363 22.5 130.767 25.265 130.767 27.8675C130.767 32.747 126.823 36 120.825 36C114.827 36 110.882 32.8013 110.882 27.8675C110.828 25.1567 112.287 22.6627 114.665 21.3615C112.881 19.8976 111.855 18 111.855 15.9397C111.855 11.6566 115.205 8.51205 120.5 8.51205C123.635 8.51205 124.553 9.05422 126.336 9.05422C127.525 9.10843 128.768 8.78313 129.795 8.13253C130.173 7.91568 130.551 7.753 130.984 7.753C131.686 7.753 132.064 8.45783 132.064 9.3253C132.227 11.2229 131.038 12.9036 129.254 13.5ZM125.202 27.7048C125.202 25.5363 123.527 24.0181 120.879 24.0181C118.231 24.0181 116.556 25.482 116.556 27.7048C116.556 29.765 118.393 31.3915 120.879 31.3915C123.364 31.3915 125.202 29.765 125.202 27.7048ZM117.366 16.2651C117.421 18.1627 119.042 19.6807 120.987 19.6265C122.824 19.5723 124.229 18.1084 124.337 16.2651C124.337 14.3133 122.932 12.9578 120.879 12.9578C118.826 12.9578 117.366 14.259 117.366 16.2651ZM108.288 18.3795V25.1567C108.288 26.4578 107.802 27 106.397 27H104.506C103.101 27 102.615 26.4578 102.615 25.1567V18.5422C102.615 16.8615 102.344 15.6687 101.75 14.9096C101.048 14.0422 99.9669 13.6084 98.886 13.6627C97.7513 13.6084 96.6707 14.0964 95.9142 14.9096C95.2656 15.6687 94.8333 16.8615 94.8333 18.4879V25.1025C94.8333 26.4578 94.2391 26.9457 92.9422 26.9457H91.051C89.7541 26.9457 89.1596 26.4578 89.1596 25.1025V9.92167C89.1596 9.05422 89.5919 8.6747 90.2404 8.6747C91.2129 8.6747 92.5639 9.48795 93.5905 11.0603C95.1578 9.3253 97.3731 8.3494 99.6966 8.3494C102.453 8.3494 104.668 9.3253 106.127 10.9518C107.586 12.5783 108.288 14.8012 108.288 18.3795ZM78.7848 3.09035C78.7848 1.35542 80.2436 0 81.9188 0C81.9728 0 81.9728 0 82.0269 0C83.7021 0.108434 84.999 1.57229 84.8908 3.253C84.7827 4.93372 83.3238 6.23495 81.6487 6.1265C80.0276 6.0723 78.7848 4.71688 78.7848 3.09035ZM79.163 25.1567V10.8976C79.163 9.59638 79.6494 9 81.0542 9H82.9456C84.3504 9 84.8368 9.54218 84.8368 10.8976V25.1567C84.8368 26.4578 84.3504 27 82.9456 27H81.0542C79.6494 27 79.163 26.4578 79.163 25.1567ZM69.1662 25.1567V7.26505C69.1662 2.76505 71.6519 0.216868 73.7593 0.216868C74.4076 0.216868 74.84 0.650603 74.84 1.46386V25.1567C74.84 26.512 74.2998 27 72.9488 27H71.0576C69.7607 27 69.1662 26.512 69.1662 25.1567ZM45.8228 18C45.8228 12.3072 50.1455 8.29517 55.8734 8.29517C61.6012 8.29517 65.924 12.3072 65.924 18C65.924 23.6928 61.6012 27.7048 55.8734 27.7048C50.1455 27.7048 45.8228 23.6385 45.8228 18ZM60.1962 18C60.1962 15.3434 58.521 13.3916 55.8734 13.3916C53.2255 13.3916 51.5506 15.3434 51.5506 18C51.5506 20.6566 53.2255 22.6084 55.8734 22.6084C58.521 22.6084 60.1962 20.7108 60.1962 18ZM42.9048 10.8976V26.0783C42.9048 26.9458 42.4725 27.3253 41.8239 27.3253C40.8514 27.3253 39.5004 26.512 38.5276 24.994C37.0147 26.729 34.8534 27.7048 32.5297 27.6505C30.3684 27.7048 28.3151 26.9458 26.694 25.482C25.0188 23.8554 24.1001 21.3615 24.1001 17.7831V10.8976C24.1001 9.59638 24.5864 9 25.9913 9H27.8827C29.2875 9 29.7739 9.54218 29.7739 10.8976V17.2952C29.7739 19.4639 30.1522 20.6024 30.8546 21.3615C31.5031 22.0121 32.4756 22.3916 33.3943 22.3374C34.4211 22.3374 35.3936 21.9578 36.096 21.1988C36.7987 20.4397 37.1769 19.247 37.1769 17.4036V10.8976C37.1769 9.54218 37.7712 9 39.0681 9H40.9595C42.3102 9 42.9048 9.54218 42.9048 10.8976ZM20.2095 1.46386V26.0783C20.2095 26.9458 19.7772 27.3253 19.1288 27.3253C18.1562 27.3253 16.8052 26.512 15.8326 25.0483C14.6438 26.4578 12.2122 27.7048 9.40228 27.7048C3.78253 27.7048 0 23.5843 0 18C0 12.4157 3.89061 8.29517 9.40228 8.29517C11.2395 8.29517 13.0227 8.83735 14.5898 9.86747V7.26505C14.5898 2.76505 17.1295 0.216868 19.1828 0.216868C19.8313 0.216868 20.2095 0.650603 20.2095 1.46386ZM14.5898 18C14.5898 15.235 12.6445 13.3916 10.2128 13.3916C7.7812 13.3916 5.78186 15.235 5.78186 18C5.78186 20.765 7.72716 22.6084 10.2128 22.6084C12.6985 22.6084 14.5898 20.8193 14.5898 18Z" fill="black" fill-opacity="0.4"/>
</svg>
